<?xml version="1.0" encoding="UTF-8" standalone="no"?>
<!-- Created with Inkscape (http://www.inkscape.org/) -->

<svg
   xmlns:dc="http://purl.org/dc/elements/1.1/"
   xmlns:cc="http://creativecommons.org/ns#"
   xmlns:rdf="http://www.w3.org/1999/02/22-rdf-syntax-ns#"
   xmlns:svg="http://www.w3.org/2000/svg"
   xmlns="http://www.w3.org/2000/svg"
   xmlns:sodipodi="http://sodipodi.sourceforge.net/DTD/sodipodi-0.dtd"
   xmlns:inkscape="http://www.inkscape.org/namespaces/inkscape"
   version="1.1"
   id="svg2"
   xml:space="preserve"
   width="319.32001"
   height="221.32001"
   viewBox="0 0 319.32001 221.32001"
   sodipodi:docname="logo-mysql.svg"
   inkscape:version="0.92.5 (2060ec1f9f, 2020-04-08)"><metadata
     id="metadata8"><rdf:RDF><cc:Work
         rdf:about=""><dc:format>image/svg+xml</dc:format><dc:type
           rdf:resource="http://purl.org/dc/dcmitype/StillImage" /><dc:title></dc:title></cc:Work></rdf:RDF></metadata><defs
     id="defs6" /><sodipodi:namedview
     pagecolor="#ffffff"
     bordercolor="#666666"
     borderopacity="1"
     objecttolerance="10"
     gridtolerance="10"
     guidetolerance="10"
     inkscape:pageopacity="0"
     inkscape:pageshadow="2"
     inkscape:window-width="1920"
     inkscape:window-height="1049"
     id="namedview4"
     showgrid="false"
     inkscape:zoom="1.0663293"
     inkscape:cx="64.004746"
     inkscape:cy="110.66"
     inkscape:window-x="0"
     inkscape:window-y="31"
     inkscape:window-maximized="1"
     inkscape:current-layer="g10" /><g
     id="g10"
     inkscape:groupmode="layer"
     inkscape:label="ink_ext_XXXXXX"
     transform="matrix(1.3333333,0,0,-1.3333333,0,221.32)"><path
       inkscape:connector-curvature="0"
       id="path14"
       style="fill:#ffffff;fill-opacity:1;fill-rule:nonzero;stroke:none;stroke-width:0.1"
       d="M 239.487,0 H 0 V 165.991 H 239.487 V 0" /><path
       inkscape:connector-curvature="0"
       id="path16"
       style="fill:#5b85a4;fill-opacity:1;fill-rule:evenodd;stroke:none;stroke-width:0.1"
       d="m 147.769,124.317 c -0.794,0 -1.354,-0.096 -1.919,-0.235 v -0.094 h 0.091 c 0.378,-0.747 1.034,-1.266 1.498,-1.92 0.377,-0.749 0.705,-1.495 1.079,-2.245 0.046,0.046 0.091,0.095 0.091,0.095 0.66,0.466 0.987,1.214 0.987,2.339 -0.283,0.33 -0.327,0.655 -0.563,0.984 -0.28,0.467 -0.889,0.701 -1.264,1.076" /><path
       inkscape:connector-curvature="0"
       id="path18"
       style="fill:#2c7493;fill-opacity:1;fill-rule:nonzero;stroke:none;stroke-width:0.1"
       d="M 73.3074,31.932 H 66.8242 C 66.5957,42.875 65.9641,53.1648 64.9309,62.8039 H 64.8738 L 55.0027,31.932 H 50.0664 L 40.2551,62.8039 H 40.1973 C 39.4695,53.5469 39.0117,43.257 38.8215,31.932 h -5.9113 c 0.382,13.7731 1.3378,26.684 2.8679,38.736 h 8.0356 l 9.3535,-28.4621 h 0.0574 l 9.4109,28.4621 h 7.6887 C 72.0078,56.5531 73.002,43.6379 73.3074,31.932" /><path
       inkscape:connector-curvature="0"
       id="path20"
       style="fill:#2c7493;fill-opacity:1;fill-rule:nonzero;stroke:none;stroke-width:0.1"
       d="M 101.426,60.5109 C 98.7859,46.1859 95.3035,35.7762 90.9813,29.282 c -3.368,-5.0039 -7.0575,-7.5058 -11.075,-7.5058 -1.0711,0 -2.3918,0.3226 -3.959,0.9636 v 3.4532 c 0.7656,-0.1121 1.664,-0.1719 2.6972,-0.1719 1.8743,0 3.3848,0.518 4.534,1.5519 1.3762,1.2598 2.0649,2.6758 2.0649,4.245 0,1.0718 -0.5371,3.2711 -1.6067,6.598 l -7.1152,22.0949 h 6.3691 l 5.1067,-16.525 c 1.1472,-3.7519 1.6257,-6.3711 1.4343,-7.864 2.793,7.4601 4.7442,15.5902 5.8543,24.389 h 6.1401" /><path
       inkscape:connector-curvature="0"
       id="path22"
       style="fill:#f18513;fill-opacity:1;fill-rule:nonzero;stroke:none;stroke-width:0.1"
       d="m 187.73,31.932 h -18.419 v 38.736 h 6.198 V 36.6969 H 187.73 V 31.932" /><path
       inkscape:connector-curvature="0"
       id="path24"
       style="fill:#f18513;fill-opacity:1;fill-rule:evenodd;stroke:none;stroke-width:0.1"
       d="m 141.423,39.6809 c -1.569,2.525 -2.355,6.5769 -2.355,12.164 0,9.7539 2.966,14.6344 8.895,14.6344 3.1,0 5.375,-1.1672 6.83,-3.4992 1.567,-2.5262 2.353,-6.543 2.353,-12.052 0,-9.832 -2.966,-14.75 -8.895,-14.75 -3.099,0 -5.375,1.166 -6.828,3.5028 m 23.068,-8.6829 -7.12,3.511 c 0.634,0.5199 1.236,1.0808 1.781,1.7301 3.023,3.5539 4.536,8.814 4.536,15.7781 0,12.8148 -5.031,19.2258 -15.092,19.2258 -4.935,0 -8.781,-1.625 -11.535,-4.8797 -3.024,-3.5582 -4.534,-8.7985 -4.534,-15.7235 0,-6.8089 1.338,-11.8039 4.016,-14.9769 2.449,-2.868 6.141,-4.3039 11.077,-4.3039 1.843,0 3.534,0.2269 5.071,0.6808 l 9.272,-5.3957 2.528,4.3539" /><path
       inkscape:connector-curvature="0"
       id="path26"
       style="fill:#f18513;fill-opacity:1;fill-rule:nonzero;stroke:none;stroke-width:0.1"
       d="m 129.826,42.6691 c 0,-3.2851 -1.207,-5.982 -3.613,-8.0921 -2.408,-2.1008 -5.643,-3.154 -9.694,-3.154 -3.789,0 -7.461,1.2122 -11.018,3.6168 l 1.664,3.3274 c 3.061,-1.5301 5.831,-2.2942 8.318,-2.2942 2.333,0 4.159,0.5192 5.48,1.545 1.318,1.0332 2.108,2.4742 2.108,4.3019 0,2.3 -1.604,4.266 -4.547,5.9153 -2.717,1.491 -8.147,4.6039 -8.147,4.6039 -2.942,2.1461 -4.417,4.4488 -4.417,8.2429 0,3.1379 1.1,5.6743 3.297,7.6039 2.202,1.9336 5.043,2.9004 8.522,2.9004 3.596,0 6.866,-0.9597 9.811,-2.8722 l -1.496,-3.3243 c -2.52,1.0684 -5.005,1.6047 -7.455,1.6047 -1.988,0 -3.52,-0.4773 -4.588,-1.4375 -1.074,-0.9519 -1.738,-2.1769 -1.738,-3.6699 0,-2.2941 1.639,-4.284 4.665,-5.9652 2.751,-1.4918 8.314,-4.6649 8.314,-4.6649 3.026,-2.1422 4.534,-4.4261 4.534,-8.1879" /><path
       inkscape:connector-curvature="0"
       id="path28"
       style="fill:#2c7493;fill-opacity:1;fill-rule:evenodd;stroke:none;stroke-width:0.1"
       d="m 195.508,83.6434 c -3.746,0.0937 -6.647,-0.2801 -9.08,-1.3106 -0.702,-0.2805 -1.824,-0.2805 -1.92,-1.1699 0.377,-0.3738 0.422,-0.9816 0.752,-1.4988 0.56,-0.936 1.541,-2.1977 2.432,-2.8547 0.983,-0.7492 1.966,-1.4953 2.997,-2.1504 1.824,-1.1281 3.884,-1.7805 5.66,-2.9043 1.033,-0.6543 2.059,-1.4961 3.092,-2.2 0.513,-0.3742 0.838,-0.9836 1.496,-1.2152 v 0.1418 c -0.33,0.4199 -0.422,1.0285 -0.748,1.4992 -0.467,0.4644 -0.936,0.8883 -1.405,1.3543 -1.358,1.825 -3.045,3.4148 -4.866,4.7254 -1.499,1.0324 -4.777,2.4367 -5.383,4.1632 0,0 -0.049,0.0496 -0.095,0.0957 1.03,0.095 2.249,0.47 3.231,0.7539 1.589,0.42 3.04,0.325 4.678,0.745 0.75,0.1886 1.499,0.4242 2.251,0.6543 v 0.4242 c -0.847,0.8406 -1.453,1.9656 -2.342,2.7605 -2.385,2.0586 -5.009,4.0696 -7.723,5.7571 -1.453,0.9363 -3.325,1.5418 -4.87,2.3394 -0.559,0.2813 -1.494,0.4199 -1.823,0.8906 -0.843,1.0293 -1.313,2.3848 -1.92,3.6036 -1.356,2.5713 -2.669,5.4253 -3.837,8.1443 -0.842,1.824 -1.357,3.648 -2.387,5.334 -4.823,7.958 -10.063,12.776 -18.113,17.504 -1.732,0.984 -3.791,1.405 -5.989,1.92 -1.172,0.049 -2.341,0.14 -3.511,0.186 -0.75,0.329 -1.5,1.219 -2.154,1.64 -2.669,1.684 -9.546,5.334 -11.513,0.514 -1.264,-3.044 1.872,-6.038 2.949,-7.583 0.795,-1.075 1.826,-2.294 2.385,-3.509 0.328,-0.796 0.422,-1.64 0.751,-2.481 0.748,-2.059 1.449,-4.353 2.434,-6.273 0.513,-0.983 1.074,-2.014 1.729,-2.899 0.378,-0.518 1.031,-0.749 1.172,-1.594 -0.653,-0.935 -0.704,-2.339 -1.078,-3.51 -1.684,-5.289 -1.03,-11.8414 1.358,-15.7254 0.747,-1.1699 2.528,-3.7449 4.915,-2.7597 2.106,0.841 1.638,3.5089 2.246,5.8476 0.14,0.5656 0.046,0.9367 0.326,1.3106 v -0.0946 c 0.655,-1.3086 1.312,-2.5691 1.92,-3.884 1.453,-2.291 3.978,-4.6785 6.086,-6.2683 1.12,-0.8457 2.01,-2.2942 3.414,-2.8106 v 0.1414 h -0.092 c -0.282,0.42 -0.702,0.6086 -1.077,0.9348 -0.842,0.843 -1.776,1.8731 -2.434,2.8086 -1.965,2.6199 -3.699,5.5234 -5.24,8.5184 -0.751,1.4543 -1.405,3.0441 -2.014,4.4941 -0.28,0.559 -0.28,1.4039 -0.749,1.684 -0.704,-1.0285 -1.731,-1.9191 -2.245,-3.1789 -0.89,-2.0149 -0.983,-4.4949 -1.313,-7.0703 -0.186,-0.0489 -0.092,0 -0.186,-0.093 -1.496,0.3742 -2.011,1.9184 -2.574,3.2246 -1.404,3.3274 -1.64,8.6627 -0.421,12.5007 0.326,0.981 1.734,4.07 1.17,5.006 -0.283,0.893 -1.218,1.403 -1.732,2.108 -0.607,0.889 -1.266,2.01 -1.683,2.995 -1.124,2.62 -1.689,5.523 -2.902,8.143 -0.562,1.219 -1.547,2.483 -2.34,3.604 -0.891,1.264 -1.873,2.153 -2.576,3.649 -0.232,0.516 -0.56,1.359 -0.187,1.919 0.092,0.375 0.282,0.516 0.657,0.61 0.605,0.515 2.339,-0.139 2.946,-0.42 1.733,-0.7 3.184,-1.359 4.633,-2.34 0.656,-0.469 1.358,-1.358 2.199,-1.594 h 0.985 c 1.497,-0.325 3.183,-0.091 4.588,-0.514 2.479,-0.795 4.725,-1.965 6.739,-3.229 6.129,-3.885 11.184,-9.409 14.599,-16.007 0.563,-1.075 0.799,-2.059 1.313,-3.18 0.983,-2.298 2.201,-4.638 3.182,-6.8823 0.982,-2.2 1.92,-4.4446 3.326,-6.2727 0.7,-0.9812 3.509,-1.4961 4.773,-2.0113 0.934,-0.4199 2.387,-0.7949 3.23,-1.309 1.591,-0.9812 3.179,-2.1062 4.679,-3.1844 0.747,-0.5617 3.088,-1.7304 3.229,-2.6679" /><path
       inkscape:connector-curvature="0"
       id="path30"
       style="fill:#f18513;fill-opacity:1;fill-rule:nonzero;stroke:none;stroke-width:0.1"
       d="m 192.154,31.9359 h 1.027 v 3.9411 h 1.344 v 0.805 h -3.767 v -0.805 h 1.396 z m 7.815,0 h 0.968 v 4.7461 h -1.456 l -1.185,-3.2351 -1.29,3.2351 h -1.403 v -4.7461 h 0.916 v 3.6121 h 0.052 l 1.351,-3.6121 h 0.698 l 1.349,3.6121 v -3.6121" /></g></svg>